HIERARCHY
ROOT Hips
{
    OFFSET 0.000000 0.000000 0.000000
    CHANNELS 6 Xposition Yposition Zposition Zrotation Xrotation Yrotation
    JOINT Spine
    {
        OFFSET -0.000000 14.517291 0.000000
        CHANNELS 3 Zrotation Xrotation Yrotation
        JOINT Spine1
        {
            OFFSET -0.000000 37.558300 0.000000
            CHANNELS 3 Zrotation Xrotation Yrotation
            JOINT Neck
            {
                OFFSET -0.000000 37.404057 3.400369
                CHANNELS 3 Zrotation Xrotation Yrotation
                JOINT Head
                {
                    OFFSET -0.000000 24.785618 -3.540803
                    CHANNELS 3 Zrotation Xrotation Yrotation
                    End Site
                    {
                        OFFSET -0.000000 35.408028 0.000000
                    }
                }
            }
            JOINT LeftShoulder
            {
                OFFSET 6.992933 33.973492 -0.192664
                CHANNELS 3 Zrotation Xrotation Yrotation
                JOINT LeftArm
                {
                    OFFSET 21.527611 0.000000 0.000000
                    CHANNELS 3 Zrotation Xrotation Yrotation
                    JOINT LeftForeArm
                    {
                        OFFSET 56.353916 0.000000 0.000000
                        CHANNELS 3 Zrotation Xrotation Yrotation
                        JOINT LeftHand
                        {
                            OFFSET 47.774071 0.000000 0.000000
                            CHANNELS 3 Zrotation Xrotation Yrotation
                            End Site
                            {
                                OFFSET 26.556021 0.000000 0.000000
                            }
                        }
                    }
                }
            }
            JOINT RightShoulder
            {
                OFFSET -7.065357 33.973492 -0.192664
                CHANNELS 3 Zrotation Xrotation Yrotation
                JOINT RightArm
                {
                    OFFSET -21.527611 0.000000 0.000000
                    CHANNELS 3 Zrotation Xrotation Yrotation
                    JOINT RightForeArm
                    {
                        OFFSET -56.353916 0.000000 0.000000
                        CHANNELS 3 Zrotation Xrotation Yrotation
                        JOINT RightHand
                        {
                            OFFSET -47.774071 0.000000 0.000000
                            CHANNELS 3 Zrotation Xrotation Yrotation
                            End Site
                            {
                                OFFSET -26.556021 0.000000 0.000000
                            }
                        }
                    }
                }
            }
        }
    }
    JOINT LeftUpLeg
    {
        OFFSET 17.704014 0.000000 0.000000
        CHANNELS 3 Zrotation Xrotation Yrotation
        JOINT LeftLeg
        {
            OFFSET -0.000000 -81.181816 0.000000
            CHANNELS 3 Zrotation Xrotation Yrotation
            JOINT LeftFoot
            {
                OFFSET -0.000000 -62.821102 0.000000
                CHANNELS 3 Zrotation Xrotation Yrotation
                JOINT LeftToeBase
                {
                    OFFSET -0.000000 -11.507608 26.556021
                    CHANNELS 3 Zrotation Xrotation Yrotation
                    End Site
                    {
                        OFFSET -0.000000 0.000000 7.081605
                    }
                }
            }
        }
    }
    JOINT RightUpLeg
    {
        OFFSET -17.704014 0.000000 0.000000
        CHANNELS 3 Zrotation Xrotation Yrotation
        JOINT RightLeg
        {
            OFFSET -0.000000 -81.181816 0.000000
            CHANNELS 3 Zrotation Xrotation Yrotation
            JOINT RightFoot
            {
                OFFSET -0.000000 -62.821102 0.000000
                CHANNELS 3 Zrotation Xrotation Yrotation
                JOINT RightToeBase
                {
                    OFFSET -0.000000 -11.507608 26.556021
                    CHANNELS 3 Zrotation Xrotation Yrotation
                    End Site
                    {
                        OFFSET -0.000000 0.000000 7.081605
                    }
                }
            }
        }
    }
}
MOTION
Frames:    4
Frame Time:    0.008333
-20.070927    155.494507    -18.605576    -13.429373    -28.137207    36.506950    0.483619    11.636278    -0.565859    6.007251    13.827743    -0.923817    31.923182    0.621096    2.788452    -5.296053    -12.174238    -3.088393    14.153577    7.701287    -23.912292    -32.264416    16.147203    -55.539959    -0.945059    -32.176224    -105.661613    -9.784314    -32.260689    -13.332305    13.708779    2.591803    -5.756777    21.482462    -4.770896    34.523792    -28.508307    -11.733294    54.493095    -5.359109    1.546591    35.465481    30.289747    -6.727048    1.736807    -7.200711    59.829956    -16.385889    16.107992    -29.642883    43.013496    0.000000    0.000000    0.000000    -88.818672    -49.917740    -57.343044    8.440500    21.538052    -5.269804    14.234736    20.953045    -20.005835    0.000000    0.000000    0.000000    
-19.983282    155.854553    -18.704649    -13.393343    -28.060602    36.518257    0.507042    11.514235    -0.602498    5.993385    13.850679    -0.934306    31.707533    0.506683    2.782808    -5.098392    -12.027472    -3.039139    14.122281    7.686028    -23.905972    -32.226421    16.229343    -55.556789    -0.914407    -32.259399    -105.653427    -9.783072    -32.309296    -13.335333    13.674140    2.591413    -5.797121    21.515402    -4.711014    34.546658    -28.443953    -11.710700    54.542038    -5.255072    1.585866    35.413445    30.187233    -6.483200    1.816486    -7.084835    59.156628    -16.541037    15.947135    -29.355318    42.906349    0.000000    0.000000    0.000000    -88.717209    -49.923634    -57.166107    8.454986    21.512758    -5.243232    14.301891    20.938553    -20.102566    0.000000    0.000000    0.000000    
-19.919432    156.241608    -18.798241    -13.418505    -27.939571    36.504208    0.496252    11.333724    -0.645149    6.033941    13.856383    -0.954002    31.788605    0.486729    2.820803    -5.363756    -11.951645    -3.079620    14.073456    7.696841    -23.840488    -32.196934    16.293119    -55.603485    -0.943526    -32.259174    -105.669937    -9.771295    -32.344765    -13.310710    13.624812    2.596583    -5.800760    21.582220    -4.714733    34.547478    -28.301931    -11.593497    54.638927    -5.250853    1.663173    35.330170    30.102617    -6.303772    1.999592    -6.802957    58.475105    -16.752707    15.688823    -29.060490    42.661507    0.000000    0.000000    0.000000    -88.659172    -49.954914    -57.040634    8.448180    21.499010    -5.241673    14.394650    20.893148    -20.223392    0.000000    0.000000    0.000000    
-19.830219    156.633667    -18.894615    -13.392374    -27.874380    36.531216    0.541098    11.224027    -0.716355    6.004264    13.855579    -0.972265    31.656605    0.423083    2.801644    -5.267195    -11.823157    -3.068127    14.040649    7.663066    -23.825274    -32.262890    16.298893    -55.549347    -1.034420    -32.132095    -105.737854    -9.674309    -32.336491    -13.226061    13.605832    2.649157    -5.839520    21.579021    -4.577990    34.619701    -28.361115    -11.600533    54.571205    -5.415546    1.607239    35.468643    30.024937    -6.036684    2.130579    -6.621494    57.736973    -17.008738    15.516365    -28.746763    42.533249    0.000000    0.000000    0.000000    -88.505470    -49.934052    -56.824448    8.467390    21.456089    -5.183849    14.437037    20.851440    -20.326324    0.000000    0.000000    0.000000    
